{
  "source": "C:\\Users\\Peter\\Desktop\\stuff\\MIUN\\quantitative_research\\video_compression\\videos\\UVG\\ShakeNDry_1920x1080_120fps_420_8bit_YUV.y4m",
  "output": "C:\\Users\\Peter\\Desktop\\stuff\\MIUN\\quantitative_research\\video_compression\\compressed_videos\\UVG\\hevc\\1.5\\ShakeNDry_1920x1080_120fps_420_8bit_YUV_hevc.mp4",
  "codec": "hevc",
  "ok": "[yuv4mpegpipe @ 0000029c75106740] Stream #0: not enough frames to estimate rate; consider increasing probesize\nInput #0, yuv4mpegpipe, from 'C:\\Users\\Peter\\Desktop\\stuff\\MIUN\\quantitative_research\\video_compression\\videos\\UVG\\ShakeNDry_1920x1080_120fps_420_8bit_YUV.y4m':\n  Duration: 00:00:02.50, start: 0.000000, bitrate: 2985989 kb/s\n  Stream #0:0: Video: rawvideo (I420 / 0x30323449), yuv420p(progressive), 1920x1080, 120 fps, 120 tbr, 120 tbn\n[out#0/mp4 @ 0000029c75109ac0] Codec AVOption b:a (set bitrate (in bits/s)) has not been used for any stream. The most likely reason is either wrong type (e.g. a video option with no video streams) or that it is a private option of some decoder which was not actually used for any stream.\nStream mapping:\n  Stream #0:0 -> #0:0 (rawvideo (native) -> hevc (libx265))\nPress [q] to stop, [?] for help\n[libx265 @ 0000029c7510cb00] Unknown option: \"aq-mode.\nx265 [info]: HEVC encoder version 4.1+190-8f11c33ac\nx265 [info]: build info [Windows][GCC 15.1.0][64 bit] 10bit\nx265 [info]: using cpu capabilities: MMX2 SSE2Fast LZCNT SSSE3 SSE4.2 AVX FMA3 BMI2 AVX2\nx265 [info]: Main 10 profile, Level-5 (Main tier)\nx265 [info]: Thread pool created using 12 threads\nx265 [info]: Slices                              : 1\nx265 [info]: frame threads / pool features       : 3 / wpp(17 rows)\nx265 [info]: Coding QT: max CU size, min CU size : 64 / 8\nx265 [info]: Residual QT: max TU size, max depth : 32 / 1 inter / 1 intra\nx265 [info]: ME / range / subpel / merge         : star / 57 / 3 / 3\nx265 [info]: Keyframe min / max / scenecut / bias  : 25 / 250 / 40 / 5.00 \nx265 [info]: Lookahead / bframes / badapt        : 25 / 4 / 2\nx265 [info]: b-pyramid / weightp / weightb       : 1 / 1 / 0\nx265 [info]: References / ref-limit  cu / depth  : 4 / on / on\nx265 [info]: AQ: mode / str / qg-size / cu-tree  : 2 / 1.0 / 32 / 1\nx265 [info]: Rate Control / qCompress            : ABR-1500 kbps / 0.60\nx265 [info]: VBV/HRD buffer / max-rate / init    : 1500 / 1500 / 0.750\nx265 [info]: tools: rect limit-modes rd=4 psy-rd=2.00 rdoq=2 psy-rdoq=1.00\nx265 [info]: tools: rskip mode=1 signhide tmvp strong-intra-smoothing lslices=4\nx265 [info]: tools: deblock sao dhdr10-info\nOutput #0, mp4, to 'C:\\Users\\Peter\\Desktop\\stuff\\MIUN\\quantitative_research\\video_compression\\compressed_videos\\UVG\\hevc\\1.5\\ShakeNDry_1920x1080_120fps_420_8bit_YUV_hevc.mp4':\n  Metadata:\n    encoder         : Lavf62.3.100\n  Stream #0:0: Video: hevc (hev1 / 0x31766568), yuv420p10le(tv, progressive), 1920x1080, q=2-31, 1500 kb/s, 120 fps, 15360 tbn\n    Metadata:\n      encoder         : Lavc62.11.100 libx265\n    Side data:\n      cpb: bitrate max/min/avg: 1500000/0/1500000 buffer size: 1500000 vbv_delay: N/A\nframe=    0 fps=0.0 q=0.0 size=       0KiB time=N/A bitrate=N/A speed=N/A elapsed=0:00:00.52    \nframe=    0 fps=0.0 q=0.0 size=       0KiB time=N/A bitrate=N/A speed=N/A elapsed=0:00:01.03    \nframe=    0 fps=0.0 q=0.0 size=       0KiB time=N/A bitrate=N/A speed=N/A elapsed=0:00:01.54    \nframe=    0 fps=0.0 q=0.0 size=       0KiB time=N/A bitrate=N/A speed=N/A elapsed=0:00:02.07    \nframe=    1 fps=0.4 q=51.0 size=       0KiB time=-00:00:00.00 bitrate=N/A speed=N/A elapsed=0:00:02.58    \nframe=    3 fps=1.0 q=51.0 size=       0KiB time=00:00:00.00 bitrate=  42.2kbits/s speed=0.00269x elapsed=0:00:03.10    \nframe=    6 fps=1.7 q=51.0 size=       0KiB time=00:00:00.03 bitrate=  10.6kbits/s speed=0.0092x elapsed=0:00:03.62    \nframe=    8 fps=1.9 q=51.0 size=       0KiB time=00:00:00.05 bitrate=   7.0kbits/s speed=0.0121x elapsed=0:00:04.14    \nframe=   10 fps=2.1 q=51.0 size=       0KiB time=00:00:00.06 bitrate=   5.3kbits/s speed=0.0143x elapsed=0:00:04.65    \nframe=   12 fps=2.3 q=47.1 size=       0KiB time=00:00:00.08 bitrate=   4.2kbits/s speed=0.0161x elapsed=0:00:05.17    \nframe=   14 fps=2.5 q=51.0 size=       0KiB time=00:00:00.10 bitrate=   3.5kbits/s speed=0.0175x elapsed=0:00:05.70    \nframe=   16 fps=2.6 q=51.0 size=       0KiB time=00:00:00.11 bitrate=   3.0kbits/s speed=0.0188x elapsed=0:00:06.20    \nframe=   19 fps=2.8 q=51.0 size=       0KiB time=00:00:00.14 bitrate=   2.5kbits/s speed=0.0211x elapsed=0:00:06.71    \nframe=   20 fps=2.8 q=50.6 size=       0KiB time=00:00:00.15 bitrate=   2.3kbits/s speed=0.0207x elapsed=0:00:07.23    \nframe=   22 fps=2.8 q=44.9 size=       0KiB time=00:00:00.16 bitrate=   2.1kbits/s speed=0.0215x elapsed=0:00:07.74    \nframe=   25 fps=3.0 q=50.6 size=       0KiB time=00:00:00.19 bitrate=   1.8kbits/s speed=0.0232x elapsed=0:00:08.27    \nframe=   27 fps=3.1 q=45.5 size=       0KiB time=00:00:00.20 bitrate=   1.7kbits/s speed=0.0237x elapsed=0:00:08.79    \nframe=   29 fps=3.1 q=50.4 size=       0KiB time=00:00:00.22 bitrate=   1.6kbits/s speed=0.0242x elapsed=0:00:09.30    \nframe=   31 fps=3.2 q=48.8 size=       0KiB time=00:00:00.24 bitrate=   1.5kbits/s speed=0.0246x elapsed=0:00:09.81    \nframe=   33 fps=3.2 q=48.6 size=       0KiB time=00:00:00.25 bitrate=   1.4kbits/s speed=0.025x elapsed=0:00:10.33    \nframe=   34 fps=3.1 q=48.8 size=       0KiB time=00:00:00.26 bitrate=   1.3kbits/s speed=0.0246x elapsed=0:00:10.85    \nframe=   36 fps=3.2 q=48.5 size=       0KiB time=00:00:00.28 bitrate=   1.2kbits/s speed=0.0249x elapsed=0:00:11.36    \nframe=   38 fps=3.2 q=48.4 size=       0KiB time=00:00:00.30 bitrate=   1.2kbits/s speed=0.0252x elapsed=0:00:11.88    \nframe=   40 fps=3.2 q=48.4 size=       0KiB time=00:00:00.31 bitrate=   1.1kbits/s speed=0.0255x elapsed=0:00:12.40    \nframe=   42 fps=3.3 q=42.8 size=       0KiB time=00:00:00.33 bitrate=   1.1kbits/s speed=0.0258x elapsed=0:00:12.90    \nframe=   44 fps=3.3 q=48.4 size=       0KiB time=00:00:00.35 bitrate=   1.0kbits/s speed=0.0261x elapsed=0:00:13.42    \nframe=   45 fps=3.2 q=47.6 size=       0KiB time=00:00:00.35 bitrate=   1.0kbits/s speed=0.0257x elapsed=0:00:13.93    \nframe=   47 fps=3.2 q=42.3 size=       0KiB time=00:00:00.37 bitrate=   0.9kbits/s speed=0.0259x elapsed=0:00:14.46    \nframe=   49 fps=3.3 q=47.6 size=       0KiB time=00:00:00.39 bitrate=   0.9kbits/s speed=0.0262x elapsed=0:00:14.97    \nframe=   51 fps=3.3 q=47.7 size=       0KiB time=00:00:00.40 bitrate=   0.9kbits/s speed=0.0264x elapsed=0:00:15.49    \nframe=   52 fps=3.2 q=43.5 size=       0KiB time=00:00:00.41 bitrate=   0.8kbits/s speed=0.026x elapsed=0:00:16.00    \nframe=   54 fps=3.3 q=47.7 size=       0KiB time=00:00:00.43 bitrate=   0.8kbits/s speed=0.0262x elapsed=0:00:16.51    \nframe=   55 fps=3.2 q=46.6 size=       0KiB time=00:00:00.44 bitrate=   0.8kbits/s speed=0.0259x elapsed=0:00:17.04    \nframe=   58 fps=3.3 q=46.3 size=       0KiB time=00:00:00.46 bitrate=   0.8kbits/s speed=0.0266x elapsed=0:00:17.55    \nframe=   59 fps=3.3 q=46.7 size=       0KiB time=00:00:00.47 bitrate=   0.7kbits/s speed=0.0263x elapsed=0:00:18.06    \nframe=   61 fps=3.3 q=46.7 size=       0KiB time=00:00:00.49 bitrate=   0.7kbits/s speed=0.0265x elapsed=0:00:18.58    \nframe=   62 fps=3.2 q=42.7 size=       0KiB time=00:00:00.50 bitrate=   0.7kbits/s speed=0.0262x elapsed=0:00:19.09    \nframe=   64 fps=3.3 q=47.4 size=       0KiB time=00:00:00.51 bitrate=   0.7kbits/s speed=0.0263x elapsed=0:00:19.61    \nframe=   65 fps=3.2 q=46.5 size=       0KiB time=00:00:00.52 bitrate=   0.7kbits/s speed=0.0261x elapsed=0:00:20.13    \nframe=   66 fps=3.2 q=46.6 size=       0KiB time=00:00:00.53 bitrate=   0.7kbits/s speed=0.0258x elapsed=0:00:20.64    \nframe=   67 fps=3.2 q=41.7 size=       0KiB time=00:00:00.54 bitrate=   0.6kbits/s speed=0.0256x elapsed=0:00:21.16    \nframe=   69 fps=3.2 q=46.7 size=       0KiB time=00:00:00.55 bitrate=   0.6kbits/s speed=0.0257x elapsed=0:00:21.70    \nframe=   70 fps=3.1 q=46.6 size=       0KiB time=00:00:00.56 bitrate=   0.6kbits/s speed=0.0255x elapsed=0:00:22.23    \nframe=   70 fps=3.1 q=46.6 size=       0KiB time=00:00:00.56 bitrate=   0.6kbits/s speed=0.0249x elapsed=0:00:22.74    \nframe=   71 fps=3.1 q=46.5 size=       0KiB time=00:00:00.57 bitrate=   0.6kbits/s speed=0.0247x elapsed=0:00:23.26    \nframe=   72 fps=3.0 q=42.4 size=       0KiB time=00:00:00.58 bitrate=   0.6kbits/s speed=0.0245x elapsed=0:00:23.79    \nframe=   74 fps=3.0 q=46.5 size=       0KiB time=00:00:00.60 bitrate=   0.6kbits/s speed=0.0247x elapsed=0:00:24.31    \nframe=   74 fps=3.0 q=46.5 size=       0KiB time=00:00:00.60 bitrate=   0.6kbits/s speed=0.0242x elapsed=0:00:24.82    \nframe=   74 fps=2.9 q=46.5 size=       0KiB time=00:00:00.60 bitrate=   0.6kbits/s speed=0.0237x elapsed=0:00:25.34    \nframe=   75 fps=2.9 q=46.5 size=       0KiB time=00:00:00.60 bitrate=   0.6kbits/s speed=0.0235x elapsed=0:00:25.85    \nframe=   77 fps=2.9 q=41.9 size=       0KiB time=00:00:00.62 bitrate=   0.6kbits/s speed=0.0237x elapsed=0:00:26.38    \nframe=   78 fps=2.9 q=45.1 size=       0KiB time=00:00:00.63 bitrate=   0.6kbits/s speed=0.0235x elapsed=0:00:26.90    \nframe=   79 fps=2.9 q=46.5 size=       0KiB time=00:00:00.64 bitrate=   0.5kbits/s speed=0.0234x elapsed=0:00:27.42    \nframe=   79 fps=2.8 q=46.5 size=       0KiB time=00:00:00.64 bitrate=   0.5kbits/s speed=0.023x elapsed=0:00:27.93    \nframe=   80 fps=2.8 q=46.4 size=       0KiB time=00:00:00.65 bitrate=   0.5kbits/s speed=0.0228x elapsed=0:00:28.45    \nframe=   81 fps=2.8 q=46.5 size=       0KiB time=00:00:00.65 bitrate=   0.5kbits/s speed=0.0227x elapsed=0:00:28.97    \nframe=   82 fps=2.8 q=42.2 size=       0KiB time=00:00:00.66 bitrate=   0.5kbits/s speed=0.0226x elapsed=0:00:29.49    \nframe=   83 fps=2.8 q=45.1 size=       0KiB time=00:00:00.67 bitrate=   0.5kbits/s speed=0.0225x elapsed=0:00:30.01    \nframe=   84 fps=2.8 q=46.3 size=       0KiB time=00:00:00.68 bitrate=   0.5kbits/s speed=0.0224x elapsed=0:00:30.52    \nframe=   84 fps=2.7 q=46.3 size=       0KiB time=00:00:00.68 bitrate=   0.5kbits/s speed=0.022x elapsed=0:00:31.03    \nframe=   85 fps=2.7 q=45.6 size=       0KiB time=00:00:00.69 bitrate=   0.5kbits/s speed=0.0219x elapsed=0:00:31.55    \nframe=   86 fps=2.7 q=45.6 size=       0KiB time=00:00:00.70 bitrate=   0.5kbits/s speed=0.0218x elapsed=0:00:32.07    \nframe=   87 fps=2.7 q=41.1 size=       0KiB time=00:00:00.70 bitrate=   0.5kbits/s speed=0.0217x elapsed=0:00:32.59    \nframe=   88 fps=2.7 q=45.1 size=       0KiB time=00:00:00.71 bitrate=   0.5kbits/s speed=0.0216x elapsed=0:00:33.12    \nframe=   89 fps=2.6 q=45.6 size=       0KiB time=00:00:00.72 bitrate=   0.5kbits/s speed=0.0216x elapsed=0:00:33.63    \nframe=   90 fps=2.6 q=46.4 size=       0KiB time=00:00:00.73 bitrate=   0.5kbits/s speed=0.0215x elapsed=0:00:34.15    \nframe=   91 fps=2.6 q=46.2 size=       0KiB time=00:00:00.74 bitrate=   0.5kbits/s speed=0.0214x elapsed=0:00:34.68    \nframe=   92 fps=2.6 q=41.2 size=       0KiB time=00:00:00.75 bitrate=   0.5kbits/s speed=0.0213x elapsed=0:00:35.19    \nframe=   93 fps=2.6 q=44.5 size=       0KiB time=00:00:00.75 bitrate=   0.5kbits/s speed=0.0212x elapsed=0:00:35.72    \nframe=   94 fps=2.6 q=46.4 size=       0KiB time=00:00:00.76 bitrate=   0.5kbits/s speed=0.0212x elapsed=0:00:36.24    \nframe=   95 fps=2.6 q=45.7 size=       0KiB time=00:00:00.77 bitrate=   0.5kbits/s speed=0.0211x elapsed=0:00:36.75    \nframe=   96 fps=2.6 q=45.7 size=       0KiB time=00:00:00.78 bitrate=   0.4kbits/s speed=0.021x elapsed=0:00:37.27    \nframe=   98 fps=2.6 q=44.3 size=       0KiB time=00:00:00.80 bitrate=   0.4kbits/s speed=0.0212x elapsed=0:00:37.78    \nframe=   99 fps=2.6 q=45.6 size=       0KiB time=00:00:00.80 bitrate=   0.4kbits/s speed=0.0211x elapsed=0:00:38.30    \nframe=   99 fps=2.6 q=45.6 size=       0KiB time=00:00:00.80 bitrate=   0.4kbits/s speed=0.0208x elapsed=0:00:38.81    \nframe=  100 fps=2.5 q=45.5 size=       0KiB time=00:00:00.81 bitrate=   0.4kbits/s speed=0.0208x elapsed=0:00:39.33    \nframe=  100 fps=2.5 q=45.5 size=       0KiB time=00:00:00.81 bitrate=   0.4kbits/s speed=0.0205x elapsed=0:00:39.84    \nframe=  101 fps=2.5 q=45.6 size=       0KiB time=00:00:00.82 bitrate=   0.4kbits/s speed=0.0204x elapsed=0:00:40.37    \nframe=  101 fps=2.5 q=45.6 size=       0KiB time=00:00:00.82 bitrate=   0.4kbits/s speed=0.0202x elapsed=0:00:40.90    \nframe=  101 fps=2.4 q=45.6 size=       0KiB time=00:00:00.82 bitrate=   0.4kbits/s speed=0.0199x elapsed=0:00:41.44    \nframe=  102 fps=2.4 q=40.8 size=       0KiB time=00:00:00.83 bitrate=   0.4kbits/s speed=0.0199x elapsed=0:00:41.97    \nframe=  102 fps=2.4 q=40.8 size=       0KiB time=00:00:00.83 bitrate=   0.4kbits/s speed=0.0196x elapsed=0:00:42.50    \nframe=  103 fps=2.4 q=44.3 size=       0KiB time=00:00:00.84 bitrate=   0.4kbits/s speed=0.0196x elapsed=0:00:43.02    \nframe=  103 fps=2.4 q=44.3 size=       0KiB time=00:00:00.84 bitrate=   0.4kbits/s speed=0.0193x elapsed=0:00:43.54    \nframe=  105 fps=2.4 q=45.5 size=       0KiB time=00:00:00.85 bitrate=   0.4kbits/s speed=0.0195x elapsed=0:00:44.05    \nframe=  106 fps=2.4 q=45.7 size=       0KiB time=00:00:00.86 bitrate=   0.4kbits/s speed=0.0194x elapsed=0:00:44.58    \nframe=  106 fps=2.4 q=45.7 size=       0KiB time=00:00:00.86 bitrate=   0.4kbits/s speed=0.0192x elapsed=0:00:45.09    \nframe=  107 fps=2.3 q=40.8 size=       0KiB time=00:00:00.87 bitrate=   0.4kbits/s speed=0.0192x elapsed=0:00:45.62    \nframe=  108 fps=2.3 q=44.2 size=       0KiB time=00:00:00.88 bitrate=   0.4kbits/s speed=0.0191x elapsed=0:00:46.15    \nframe=  109 fps=2.3 q=45.6 size=       0KiB time=00:00:00.89 bitrate=   0.4kbits/s speed=0.0191x elapsed=0:00:46.66    \nframe=  110 fps=2.3 q=45.5 size=       0KiB time=00:00:00.90 bitrate=   0.4kbits/s speed=0.0191x elapsed=0:00:47.17    \nframe=  112 fps=2.3 q=41.1 size=       0KiB time=00:00:00.91 bitrate=   0.4kbits/s speed=0.0192x elapsed=0:00:47.69    \nframe=  113 fps=2.3 q=44.2 size=       0KiB time=00:00:00.92 bitrate=   0.4kbits/s speed=0.0192x elapsed=0:00:48.21    \nframe=  114 fps=2.3 q=45.5 size=       0KiB time=00:00:00.93 bitrate=   0.4kbits/s speed=0.0192x elapsed=0:00:48.73    \nframe=  114 fps=2.3 q=45.5 size=       0KiB time=00:00:00.93 bitrate=   0.4kbits/s speed=0.019x elapsed=0:00:49.24    \nframe=  115 fps=2.3 q=45.4 size=       0KiB time=00:00:00.94 bitrate=   0.4kbits/s speed=0.0189x elapsed=0:00:49.75    \nframe=  116 fps=2.3 q=44.7 size=       0KiB time=00:00:00.95 bitrate=   0.4kbits/s speed=0.0189x elapsed=0:00:50.27    \nframe=  116 fps=2.3 q=44.7 size=       0KiB time=00:00:00.95 bitrate=   0.4kbits/s speed=0.0187x elapsed=0:00:50.78    \nframe=  117 fps=2.3 q=40.0 size=       0KiB time=00:00:00.95 bitrate=   0.4kbits/s speed=0.0187x elapsed=0:00:51.30    \nframe=  119 fps=2.3 q=44.7 size=       0KiB time=00:00:00.97 bitrate=   0.4kbits/s speed=0.0188x elapsed=0:00:51.81    \nframe=  119 fps=2.3 q=44.7 size=       0KiB time=00:00:00.97 bitrate=   0.4kbits/s speed=0.0186x elapsed=0:00:52.34    \nframe=  120 fps=2.3 q=45.4 size=       0KiB time=00:00:00.98 bitrate=   0.4kbits/s speed=0.0186x elapsed=0:00:52.86    \nframe=  121 fps=2.3 q=45.6 size=       0KiB time=00:00:00.99 bitrate=   0.4kbits/s speed=0.0186x elapsed=0:00:53.37    \nframe=  121 fps=2.2 q=45.6 size=       0KiB time=00:00:00.99 bitrate=   0.4kbits/s speed=0.0184x elapsed=0:00:53.89    \nframe=  122 fps=2.2 q=39.7 size=       0KiB time=00:00:01.00 bitrate=   0.4kbits/s speed=0.0184x elapsed=0:00:54.41    \nframe=  123 fps=2.2 q=44.1 size=       0KiB time=00:00:01.00 bitrate=   0.3kbits/s speed=0.0184x elapsed=0:00:54.94    \nframe=  124 fps=2.2 q=45.3 size=       0KiB time=00:00:01.01 bitrate=   0.3kbits/s speed=0.0183x elapsed=0:00:55.46    \nframe=  125 fps=2.2 q=44.5 size=       0KiB time=00:00:01.02 bitrate=   0.3kbits/s speed=0.0183x elapsed=0:00:55.98    \nframe=  126 fps=2.2 q=44.5 size=       0KiB time=00:00:01.03 bitrate=   0.3kbits/s speed=0.0183x elapsed=0:00:56.50    \nframe=  127 fps=2.2 q=39.1 size=       0KiB time=00:00:01.04 bitrate=   0.3kbits/s speed=0.0183x elapsed=0:00:57.01    \nframe=  129 fps=2.2 q=44.6 size=       0KiB time=00:00:01.05 bitrate=   0.3kbits/s speed=0.0184x elapsed=0:00:57.54    \nframe=  129 fps=2.2 q=44.6 size=       0KiB time=00:00:01.05 bitrate=   0.3kbits/s speed=0.0182x elapsed=0:00:58.04    \nframe=  131 fps=2.2 q=44.6 size=       0KiB time=00:00:01.07 bitrate=   0.3kbits/s speed=0.0184x elapsed=0:00:58.57    \nframe=  132 fps=2.2 q=39.6 size=       0KiB time=00:00:01.08 bitrate=   0.3kbits/s speed=0.0183x elapsed=0:00:59.10    \nframe=  134 fps=2.2 q=44.6 size=       0KiB time=00:00:01.10 bitrate=   0.3kbits/s speed=0.0184x elapsed=0:00:59.62    \nframe=  134 fps=2.2 q=44.6 size=       0KiB time=00:00:01.10 bitrate=   0.3kbits/s speed=0.0183x elapsed=0:01:00.15    \nframe=  136 fps=2.2 q=44.6 size=       0KiB time=00:00:01.11 bitrate=   0.3kbits/s speed=0.0184x elapsed=0:01:00.66    \nframe=  137 fps=2.2 q=38.8 size=       0KiB time=00:00:01.12 bitrate=   0.3kbits/s speed=0.0184x elapsed=0:01:01.18    \nframe=  139 fps=2.3 q=44.5 size=       0KiB time=00:00:01.14 bitrate=   0.3kbits/s speed=0.0185x elapsed=0:01:01.70    \nframe=  140 fps=2.2 q=44.4 size=       0KiB time=00:00:01.15 bitrate=   0.3kbits/s speed=0.0185x elapsed=0:01:02.22    \nframe=  141 fps=2.2 q=44.7 size=       0KiB time=00:00:01.15 bitrate=   0.3kbits/s speed=0.0185x elapsed=0:01:02.75    \nframe=  143 fps=2.3 q=43.3 size=       0KiB time=00:00:01.17 bitrate=   0.3kbits/s speed=0.0186x elapsed=0:01:03.27    \nframe=  144 fps=2.3 q=44.5 size=       0KiB time=00:00:01.18 bitrate=   0.3kbits/s speed=0.0186x elapsed=0:01:03.78    \nframe=  146 fps=2.3 q=43.7 size=       0KiB time=00:00:01.20 bitrate=   0.3kbits/s speed=0.0187x elapsed=0:01:04.30    \nframe=  147 fps=2.3 q=38.6 size=       0KiB time=00:00:01.20 bitrate=   0.3kbits/s speed=0.0186x elapsed=0:01:04.82    \nframe=  149 fps=2.3 q=43.5 size=       0KiB time=00:00:01.22 bitrate=   0.3kbits/s speed=0.0187x elapsed=0:01:05.34    \nframe=  150 fps=2.3 q=43.6 size=       0KiB time=00:00:01.23 bitrate=   0.3kbits/s speed=0.0187x elapsed=0:01:05.86    \nframe=  150 fps=2.3 q=43.6 size=       0KiB time=00:00:01.23 bitrate=   0.3kbits/s speed=0.0186x elapsed=0:01:06.37    \nframe=  151 fps=2.3 q=43.6 size=       0KiB time=00:00:01.24 bitrate=   0.3kbits/s speed=0.0186x elapsed=0:01:06.89    \nframe=  153 fps=2.3 q=42.5 size=       0KiB time=00:00:01.25 bitrate=   0.3kbits/s speed=0.0187x elapsed=0:01:07.40    \nframe=  155 fps=2.3 q=43.1 size=       0KiB time=00:00:01.27 bitrate=   0.3kbits/s speed=0.0188x elapsed=0:01:07.93    \nframe=  156 fps=2.3 q=42.7 size=       0KiB time=00:00:01.28 bitrate=   0.3kbits/s speed=0.0187x elapsed=0:01:08.46    \nframe=  157 fps=2.3 q=37.3 size=       0KiB time=00:00:01.29 bitrate=   0.3kbits/s speed=0.0187x elapsed=0:01:08.98    \nframe=  157 fps=2.3 q=37.3 size=       0KiB time=00:00:01.29 bitrate=   0.3kbits/s speed=0.0186x elapsed=0:01:09.50    \nframe=  158 fps=2.3 q=42.4 size=       0KiB time=00:00:01.30 bitrate=   0.3kbits/s speed=0.0186x elapsed=0:01:10.02    \nframe=  159 fps=2.3 q=42.7 size=       0KiB time=00:00:01.30 bitrate=   0.3kbits/s speed=0.0185x elapsed=0:01:10.55    \nframe=  159 fps=2.2 q=42.7 size=       0KiB time=00:00:01.30 bitrate=   0.3kbits/s speed=0.0184x elapsed=0:01:11.08    \nframe=  160 fps=2.2 q=43.4 size=       0KiB time=00:00:01.31 bitrate=   0.3kbits/s speed=0.0184x elapsed=0:01:11.60    \nframe=  162 fps=2.2 q=37.8 size=       0KiB time=00:00:01.33 bitrate=   0.3kbits/s speed=0.0185x elapsed=0:01:12.12    \nframe=  164 fps=2.3 q=43.1 size=       0KiB time=00:00:01.35 bitrate=   0.3kbits/s speed=0.0186x elapsed=0:01:12.64    \nframe=  165 fps=2.3 q=42.5 size=       0KiB time=00:00:01.35 bitrate=   0.3kbits/s speed=0.0186x elapsed=0:01:13.15    \nframe=  167 fps=2.3 q=37.0 size=       0KiB time=00:00:01.37 bitrate=   0.3kbits/s speed=0.0187x elapsed=0:01:13.67    \nframe=  169 fps=2.3 q=43.2 size=       0KiB time=00:00:01.39 bitrate=   0.3kbits/s speed=0.0188x elapsed=0:01:14.19    \nframe=  170 fps=2.3 q=42.5 size=       0KiB time=00:00:01.40 bitrate=   0.3kbits/s speed=0.0187x elapsed=0:01:14.71    \nframe=  172 fps=2.3 q=38.0 size=       0KiB time=00:00:01.41 bitrate=   0.2kbits/s speed=0.0188x elapsed=0:01:15.21    \nframe=  174 fps=2.3 q=42.7 size=       0KiB time=00:00:01.43 bitrate=   0.2kbits/s speed=0.0189x elapsed=0:01:15.73    \nframe=  176 fps=2.3 q=42.3 size=       0KiB time=00:00:01.45 bitrate=   0.2kbits/s speed=0.019x elapsed=0:01:16.26    \nframe=  178 fps=2.3 q=41.5 size=       0KiB time=00:00:01.46 bitrate=   0.2kbits/s speed=0.0191x elapsed=0:01:16.78    \nframe=  180 fps=2.3 q=42.5 size=       0KiB time=00:00:01.48 bitrate=   0.2kbits/s speed=0.0192x elapsed=0:01:17.30    \nframe=  181 fps=2.3 q=42.3 size=       0KiB time=00:00:01.49 bitrate=   0.2kbits/s speed=0.0192x elapsed=0:01:17.82    \nframe=  183 fps=2.3 q=42.4 size=     256KiB time=00:00:01.50 bitrate=1390.6kbits/s speed=0.0193x elapsed=0:01:18.32    \nframe=  185 fps=2.3 q=42.2 size=     256KiB time=00:00:01.52 bitrate=1375.4kbits/s speed=0.0193x elapsed=0:01:18.84    \nframe=  187 fps=2.4 q=37.3 size=     256KiB time=00:00:01.54 bitrate=1360.5kbits/s speed=0.0194x elapsed=0:01:19.36    \nframe=  189 fps=2.4 q=42.4 size=     256KiB time=00:00:01.55 bitrate=1346.0kbits/s speed=0.0195x elapsed=0:01:19.87    \nframe=  191 fps=2.4 q=42.5 size=     256KiB time=00:00:01.57 bitrate=1331.7kbits/s speed=0.0196x elapsed=0:01:20.39    \nframe=  192 fps=2.4 q=38.2 size=     256KiB time=00:00:01.58 bitrate=1324.7kbits/s speed=0.0196x elapsed=0:01:20.90    \nframe=  194 fps=2.4 q=42.6 size=     256KiB time=00:00:01.60 bitrate=1310.9kbits/s speed=0.0197x elapsed=0:01:21.42    \nframe=  195 fps=2.4 q=42.4 size=     256KiB time=00:00:01.60 bitrate=1304.1kbits/s speed=0.0196x elapsed=0:01:21.94    \nframe=  197 fps=2.4 q=37.7 size=     256KiB time=00:00:01.62 bitrate=1290.8kbits/s speed=0.0197x elapsed=0:01:22.45    \nframe=  199 fps=2.4 q=43.0 size=     256KiB time=00:00:01.64 bitrate=1277.7kbits/s speed=0.0198x elapsed=0:01:22.96    \nframe=  201 fps=2.4 q=43.1 size=     256KiB time=00:00:01.65 bitrate=1264.8kbits/s speed=0.0199x elapsed=0:01:23.49    \nframe=  203 fps=2.4 q=42.2 size=     256KiB time=00:00:01.67 bitrate=1252.2kbits/s speed=0.0199x elapsed=0:01:24.00    \nframe=  205 fps=2.4 q=42.6 size=     256KiB time=00:00:01.69 bitrate=1239.9kbits/s speed=0.02x elapsed=0:01:24.51    \nframe=  207 fps=2.4 q=38.1 size=     256KiB time=00:00:01.70 bitrate=1227.8kbits/s speed=0.0201x elapsed=0:01:25.04    \nframe=  209 fps=2.4 q=43.3 size=     256KiB time=00:00:01.72 bitrate=1215.9kbits/s speed=0.0202x elapsed=0:01:25.56    \nframe=  210 fps=2.4 q=42.9 size=     256KiB time=00:00:01.73 bitrate=1210.1kbits/s speed=0.0201x elapsed=0:01:26.08    \nframe=  212 fps=2.4 q=37.6 size=     256KiB time=00:00:01.75 bitrate=1198.6kbits/s speed=0.0202x elapsed=0:01:26.59    \nframe=  214 fps=2.5 q=42.8 size=     256KiB time=00:00:01.76 bitrate=1187.3kbits/s speed=0.0203x elapsed=0:01:27.11    \nframe=  216 fps=2.5 q=42.7 size=     256KiB time=00:00:01.78 bitrate=1176.2kbits/s speed=0.0204x elapsed=0:01:27.62    \nframe=  217 fps=2.5 q=37.7 size=     256KiB time=00:00:01.79 bitrate=1170.7kbits/s speed=0.0203x elapsed=0:01:28.14    \nframe=  220 fps=2.5 q=42.6 size=     256KiB time=00:00:01.81 bitrate=1154.6kbits/s speed=0.0205x elapsed=0:01:28.66    \nframe=  222 fps=2.5 q=37.5 size=     256KiB time=00:00:01.83 bitrate=1144.1kbits/s speed=0.0206x elapsed=0:01:29.18    \nframe=  224 fps=2.5 q=42.7 size=     256KiB time=00:00:01.85 bitrate=1133.8kbits/s speed=0.0206x elapsed=0:01:29.69    \nframe=  225 fps=2.5 q=42.4 size=     256KiB time=00:00:01.85 bitrate=1128.7kbits/s speed=0.0206x elapsed=0:01:30.20    \nframe=  227 fps=2.5 q=40.5 size=     256KiB time=00:00:01.87 bitrate=1118.7kbits/s speed=0.0207x elapsed=0:01:30.72    \nframe=  229 fps=2.5 q=45.1 size=     256KiB time=00:00:01.89 bitrate=1108.8kbits/s speed=0.0207x elapsed=0:01:31.23    \nframe=  231 fps=2.5 q=45.6 size=     256KiB time=00:00:01.90 bitrate=1099.1kbits/s speed=0.0208x elapsed=0:01:31.76    \nframe=  233 fps=2.5 q=44.6 size=     256KiB time=00:00:01.92 bitrate=1089.6kbits/s speed=0.0209x elapsed=0:01:32.27    \nframe=  234 fps=2.5 q=45.7 size=     256KiB time=00:00:01.93 bitrate=1084.9kbits/s speed=0.0208x elapsed=0:01:32.78    \nframe=  236 fps=2.5 q=45.7 size=     256KiB time=00:00:01.95 bitrate=1075.6kbits/s speed=0.0209x elapsed=0:01:33.30    \nframe=  238 fps=2.5 q=44.7 size=     256KiB time=00:00:01.96 bitrate=1066.5kbits/s speed=0.021x elapsed=0:01:33.81    \nframe=  241 fps=2.6 q=45.7 size=     256KiB time=00:00:01.99 bitrate=1053.1kbits/s speed=0.0211x elapsed=0:01:34.34    \nframe=  243 fps=2.6 q=44.7 size=     256KiB time=00:00:02.00 bitrate=1044.4kbits/s speed=0.0212x elapsed=0:01:34.85    \nframe=  244 fps=2.6 q=45.6 size=     256KiB time=00:00:02.01 bitrate=1040.1kbits/s speed=0.0211x elapsed=0:01:35.37    \nframe=  246 fps=2.6 q=45.8 size=     256KiB time=00:00:02.03 bitrate=1031.6kbits/s speed=0.0212x elapsed=0:01:35.89    \nframe=  246 fps=2.6 q=45.8 size=     256KiB time=00:00:02.03 bitrate=1031.6kbits/s speed=0.0211x elapsed=0:01:36.40    \nframe=  248 fps=2.6 q=44.7 size=     256KiB time=00:00:02.05 bitrate=1023.2kbits/s speed=0.0211x elapsed=0:01:36.92    \nframe=  251 fps=2.6 q=46.4 size=     256KiB time=00:00:02.07 bitrate=1010.8kbits/s speed=0.0213x elapsed=0:01:37.43    \nframe=  255 fps=2.6 q=46.6 size=     256KiB time=00:00:02.10 bitrate= 994.9kbits/s speed=0.0215x elapsed=0:01:37.96    \nframe=  257 fps=2.6 q=40.9 size=     256KiB time=00:00:02.12 bitrate= 987.1kbits/s speed=0.0216x elapsed=0:01:38.47    \nframe=  260 fps=2.6 q=46.5 size=     256KiB time=00:00:02.15 bitrate= 975.6kbits/s speed=0.0217x elapsed=0:01:38.99    \nframe=  262 fps=2.6 q=41.3 size=     256KiB time=00:00:02.16 bitrate= 968.1kbits/s speed=0.0218x elapsed=0:01:39.52    \nframe=  265 fps=2.6 q=46.3 size=     256KiB time=00:00:02.19 bitrate= 957.0kbits/s speed=0.0219x elapsed=0:01:40.02    \nframe=  267 fps=2.7 q=39.4 size=     256KiB time=00:00:02.20 bitrate= 949.8kbits/s speed=0.022x elapsed=0:01:40.55    \nframe=  270 fps=2.7 q=44.6 size=     256KiB time=00:00:02.23 bitrate= 939.2kbits/s speed=0.0221x elapsed=0:01:41.06    \nframe=  272 fps=2.7 q=37.6 size=     256KiB time=00:00:02.25 bitrate= 932.2kbits/s speed=0.0221x elapsed=0:01:41.58    \nframe=  274 fps=2.7 q=45.7 size=     256KiB time=00:00:02.26 bitrate= 925.4kbits/s speed=0.0222x elapsed=0:01:42.09    \nframe=  277 fps=2.7 q=37.2 size=     256KiB time=00:00:02.29 bitrate= 915.3kbits/s speed=0.0223x elapsed=0:01:42.61    \nframe=  280 fps=2.7 q=42.6 size=     256KiB time=00:00:02.31 bitrate= 905.4kbits/s speed=0.0225x elapsed=0:01:43.13    \nframe=  282 fps=2.7 q=42.2 size=     256KiB time=00:00:02.33 bitrate= 898.9kbits/s speed=0.0225x elapsed=0:01:43.65    \nframe=  285 fps=2.7 q=41.6 size=     256KiB time=00:00:02.35 bitrate= 889.4kbits/s speed=0.0226x elapsed=0:01:44.18    \nframe=  289 fps=2.8 q=40.7 size=     256KiB time=00:00:02.39 bitrate= 877.0kbits/s speed=0.0228x elapsed=0:01:44.69    \nframe=  292 fps=2.8 q=38.5 size=     256KiB time=00:00:02.41 bitrate= 867.9kbits/s speed=0.023x elapsed=0:01:45.20    \nframe=  295 fps=2.8 q=37.7 size=     256KiB time=00:00:02.44 bitrate= 859.0kbits/s speed=0.0231x elapsed=0:01:45.72    \nframe=  299 fps=2.8 q=37.8 size=     256KiB time=00:00:02.47 bitrate= 847.5kbits/s speed=0.0233x elapsed=0:01:46.23    \n[mp4 @ 0000029c75109bc0] Starting second pass: moving the moov atom to the beginning of the file\n[out#0/mp4 @ 0000029c75109ac0] video:436KiB audio:0KiB subtitle:0KiB other streams:0KiB global headers:2KiB muxing overhead: 1.522554%\nframe=  300 fps=2.8 q=37.9 Lsize=     443KiB time=00:00:02.48 bitrate=1461.3kbits/s speed=0.0234x elapsed=0:01:46.31    \nx265 [info]: frame I:      2, Avg QP:42.81  kb/s: 21695.52\nx265 [info]: frame P:     59, Avg QP:40.42  kb/s: 3724.73 \nx265 [info]: frame B:    239, Avg QP:44.96  kb/s: 688.87  \nx265 [info]: Weighted P-Frames: Y:0.0% UV:0.0%\n\nencoded 300 frames in 106.22s (2.82 fps), 1425.97 kb/s, Avg QP:44.05\n",
  "seconds": 106.44710111618042,
  "probe_out": {}
}